<?xml version="1.0" encoding="UTF-8" standalone="no"?>
<!DOCTYPE svg PUBLIC "-//W3C//DTD SVG 1.1//EN" "http://www.w3.org/Graphics/SVG/1.1/DTD/svg11.dtd">
<svg width="100%" height="100%" viewBox="0 0 373 120" version="1.1" xmlns="http://www.w3.org/2000/svg" xmlns:xlink="http://www.w3.org/1999/xlink" xml:space="preserve" xmlns:serif="http://www.serif.com/" style="fill-rule:evenodd;clip-rule:evenodd;stroke-linejoin:round;stroke-miterlimit:2;">
    <g transform="matrix(1,0,0,1,-535.97,-794.292)">
        <g transform="matrix(0.877013,0,0,0.877013,150.591,180.383)">
            <path d="M528.251,769.225C523.507,766.492 518.246,764.937 512.465,764.56L512.465,763.901C517.428,763.209 521.873,761.513 525.801,758.811C529.728,756.11 532.837,752.638 535.132,748.396C537.425,744.155 538.571,739.365 538.571,734.023L538.571,733.835C538.571,726.924 536.97,720.956 533.765,715.928C530.561,710.901 525.927,706.99 519.864,704.194C513.799,701.399 506.495,700 497.951,700L439.423,700L439.423,836L499.177,836C508.349,836 516.266,834.414 522.927,831.24C529.585,828.068 534.722,823.575 538.336,817.763C541.949,811.952 543.755,805.18 543.755,797.453L543.755,797.264C543.755,790.793 542.357,785.186 539.561,780.44C536.766,775.698 532.996,771.959 528.251,769.225ZM488.903,724.034C494.243,724.034 498.422,725.369 501.438,728.039C504.454,730.711 505.962,734.464 505.962,739.302L505.962,739.49C505.962,744.768 504.344,748.821 501.108,751.648C497.871,754.476 493.112,755.89 486.829,755.89L472.881,755.89L472.881,724.034L488.903,724.034L488.903,724.034ZM509.638,794.625C509.638,800.343 507.926,804.662 504.502,807.584C501.076,810.506 496.128,811.966 489.657,811.966L472.881,811.966L472.881,777.189L488.715,777.189C493.364,777.189 497.228,777.834 500.308,779.121C503.385,780.41 505.71,782.358 507.282,784.964C508.852,787.572 509.638,790.729 509.638,794.436L509.638,794.625L509.638,794.625Z" style="fill:rgb(32,95,50);fill-rule:nonzero;"/>
            <path d="M556.182,836L642.137,836L642.137,808.762L589.641,808.762L589.641,780.299L639.121,780.299L639.121,754.947L589.641,754.947L589.641,727.237L642.137,727.237L642.137,700L556.182,700L556.182,836Z" style="fill:rgb(32,95,50);fill-rule:nonzero;"/>
            <path d="M755.403,700L654.746,700L654.746,727.237L688.392,727.237L688.392,836L721.851,836L721.851,727.237L755.403,727.237L755.403,700Z" style="fill:rgb(32,95,50);fill-rule:nonzero;"/>
            <path d="M829.84,836L864.712,836L824.185,700L782.527,700L742,836L776.872,836L783.905,807.537L822.781,807.537L829.84,836ZM789.96,783.033L802.979,730.348L803.638,730.348L816.704,783.033L789.96,783.033Z" style="fill:rgb(32,95,50);fill-rule:nonzero;"/>
        </g>
    </g>
</svg>
