<?xml version="1.0" encoding="UTF-8" standalone="no"?>
<!DOCTYPE svg PUBLIC "-//W3C//DTD SVG 1.1//EN" "http://www.w3.org/Graphics/SVG/1.1/DTD/svg11.dtd">
<svg width="100%" height="100%" viewBox="0 0 1024 1024" version="1.1" xmlns="http://www.w3.org/2000/svg" xmlns:xlink="http://www.w3.org/1999/xlink" xml:space="preserve" xmlns:serif="http://www.serif.com/" style="fill-rule:evenodd;clip-rule:evenodd;stroke-linejoin:round;stroke-miterlimit:2;">
    <g transform="matrix(0.768155,0,0,0.768155,294.996,183.053)">
        <g id="Template---Icons---App">
            <g>
                <path d="M141,224.525L141,241.663C141,247.9 137.131,253.469 131.081,254.98C123.426,256.891 111.975,259.025 99,259.025C85.89,259.025 74.869,256.937 67.567,255.041C61.683,253.514 58,248.058 58,241.98L58,225.525C58,225.525 58.745,180.525 73.5,145.525C91.627,102.525 120,78.525 120,78.525C120,78.525 132,66.77 154.5,52.52C169.5,43.02 194,34.025 194,34.025C194,34.025 214.5,26.802 236,23.02C257,19.326 282,19.02 282,19.02C282,19.02 299.5,18.52 327,22.525C346,25.293 371.5,34.025 371.5,34.025C371.5,34.025 394,42.164 413,54.025C426.351,62.36 445,78.525 445,78.525C445,78.525 470,97.525 491,145.525C496.513,158.126 501.175,175.143 503.5,189.525C506.062,205.376 506,218.025 506,218.025L506,369.842C506,372.355 504.436,374.592 502.029,375.317C495.31,377.34 480.827,381.025 464.5,381.025C450.522,381.025 434.65,377.237 427.236,375.234C424.7,374.549 423,372.235 423,369.608L423,217.025L422,207.02L420,195.52C420,195.52 418.57,188.851 416,181.52C414.609,177.553 412,171.525 412,171.525L408.5,164.52L403,155.52C403,155.52 396.752,146.885 392,142.02C389.394,139.352 385,135.525 385,135.525C385,135.525 382.783,133.104 377,129.02C372.752,126.02 368,123.02 363.5,120.52C353.306,114.857 338,109.52 338,109.52C335,108.52 327.546,106.539 323,105.52C316.5,104.02 312,103.52 309,103.02C309,103.02 299.757,101.963 292,101.52C284.243,101.077 269.5,101.746 269.5,101.746C264.122,101.998 259.121,102.511 253,103.52C239.5,105.745 226,110.02 226,110.02C226,110.02 212.581,114.52 202.5,120.02C191,126.294 180,135.525 180,135.525C180,135.525 170.423,144.02 164,152.52C158.77,159.441 152.5,171.525 152.5,171.525C152.5,171.525 146,185.02 144,198.02C142.416,208.316 141,224.525 141,224.525Z" style="fill:url(#_Radial1);fill-rule:nonzero;"/>
            </g>
        </g>
    </g>
    <defs>
        <radialGradient id="_Radial1" cx="0" cy="0" r="1" gradientUnits="userSpaceOnUse" gradientTransform="matrix(5.00003,-385.5,348.241,4.51678,315,319.5)"><stop offset="0" style="stop-color:rgb(109,25,0);stop-opacity:1"/><stop offset="0.98" style="stop-color:rgb(169,62,0);stop-opacity:1"/><stop offset="1" style="stop-color:rgb(169,62,0);stop-opacity:1"/></radialGradient>
    </defs>
</svg>
