<?xml version="1.0" encoding="UTF-8" standalone="no"?>
<!DOCTYPE svg PUBLIC "-//W3C//DTD SVG 1.1//EN" "http://www.w3.org/Graphics/SVG/1.1/DTD/svg11.dtd">
<svg width="100%" height="100%" viewBox="0 0 1024 1024" version="1.1" xmlns="http://www.w3.org/2000/svg" xmlns:xlink="http://www.w3.org/1999/xlink" xml:space="preserve" xmlns:serif="http://www.serif.com/" style="fill-rule:evenodd;clip-rule:evenodd;stroke-linejoin:round;stroke-miterlimit:2;">
    <g transform="matrix(0.768084,0,0,0.768084,298.857,183.076)">
        <g id="Template---Icons---App">
            <path d="M137,270.005L137,370.36C137,372.855 135.458,375.079 133.072,375.806C126.43,377.83 112.028,381.505 95,381.505C77.726,381.505 64.079,377.879 57.786,375.847C55.472,375.099 54,372.919 54,370.487L54,270.005C54,270.005 54.745,225.005 69.5,190.005C87.627,147.005 116,123.005 116,123.005C116,123.005 128,111.25 150.5,97C165.5,87.5 190,78.505 190,78.505C190,78.505 210.5,71.282 232,67.5C253,63.806 278,63.5 278,63.5C278,63.5 295.5,63 323,67.005C342,69.773 367.5,78.505 367.5,78.505C367.5,78.505 390,86.644 409,98.505C422.351,106.84 441,123.005 441,123.005C441,123.005 466,142.005 487,190.005C492.513,202.606 497.175,219.623 499.5,234.005C502.062,249.856 502,262.505 502,262.505L502,370.322C502,372.835 500.436,375.072 498.029,375.797C491.31,377.82 476.827,381.505 460.5,381.505C446.522,381.505 430.65,377.717 423.236,375.714C420.7,375.029 419,372.715 419,370.088L419,262.505L418,252.5L416,241C416,241 414.57,234.331 412,227C410.609,223.033 408,217.005 408,217.005L404.5,210L399,201C399,201 392.752,192.365 388,187.5C385.394,184.832 381,181.005 381,181.005C381,181.005 378.783,178.584 373,174.5C368.752,171.5 364,168.5 359.5,166C349.306,160.336 334,155 334,155C331,154 323.546,152.019 319,151C312.5,149.5 308,149 305,148.5C305,148.5 295.757,147.443 288,147C280.243,146.557 265.5,147.226 265.5,147.226C260.122,147.478 255.121,147.991 249,149C235.5,151.225 222,155.5 222,155.5C222,155.5 208.581,160 198.5,165.5C187,171.774 176,181.005 176,181.005C176,181.005 166.423,189.5 160,198C154.77,204.921 148.5,217.005 148.5,217.005C148.5,217.005 142,230.5 140,243.5C138.416,253.796 137,270.005 137,270.005Z" style="fill:url(#_Radial1);fill-rule:nonzero;"/>
        </g>
    </g>
    <defs>
        <radialGradient id="_Radial1" cx="0" cy="0" r="1" gradientUnits="userSpaceOnUse" gradientTransform="matrix(-2.18037e-13,-569.5,482.672,-1.84794e-13,321,496)"><stop offset="0" style="stop-color:rgb(22,67,35);stop-opacity:1"/><stop offset="1" style="stop-color:rgb(37,111,58);stop-opacity:1"/></radialGradient>
    </defs>
</svg>
