<?xml version="1.0" encoding="UTF-8" standalone="no"?>
<!DOCTYPE svg PUBLIC "-//W3C//DTD SVG 1.1//EN" "http://www.w3.org/Graphics/SVG/1.1/DTD/svg11.dtd">
<svg width="100%" height="100%" viewBox="0 0 1024 1024" version="1.1" xmlns="http://www.w3.org/2000/svg" xmlns:xlink="http://www.w3.org/1999/xlink" xml:space="preserve" xmlns:serif="http://www.serif.com/" style="fill-rule:evenodd;clip-rule:evenodd;stroke-linejoin:round;stroke-miterlimit:2;">
    <g transform="matrix(0.768039,0,0,0.768039,298.869,183.145)">
        <g id="Template---Icons---App">
            <g>
                <rect x="215" y="526" width="124" height="124" style="fill:white;"/>
                <path d="M212.879,684.033C202.503,684.033 194.757,681.475 189.641,676.359C184.525,671.243 181.967,663.461 181.967,653.013L181.967,630.424C181.967,628.694 181.354,627.181 180.129,625.884L164.133,609.888C156.711,602.538 153,595.26 153,588.055C153,580.849 156.711,573.535 164.133,566.113L180.129,550.009C181.354,548.784 181.967,547.307 181.967,545.577L181.967,522.88C181.967,512.36 184.489,504.577 189.532,499.534C194.648,494.49 202.431,491.968 212.879,491.968L235.576,491.968C237.378,491.968 238.855,491.355 240.008,490.13L256.112,474.134C263.534,466.712 270.812,463.001 277.945,463.001C285.151,462.929 292.465,466.64 299.887,474.134L315.991,490.13C317.216,491.355 318.693,491.968 320.423,491.968L343.12,491.968C353.568,491.968 361.314,494.526 366.358,499.642C371.474,504.758 374.032,512.504 374.032,522.88L374.032,545.577C374.032,547.307 374.681,548.784 375.978,550.009L391.974,566.113C399.324,573.535 402.999,580.849 402.999,588.055C402.999,595.26 399.324,602.538 391.974,609.888L375.978,625.884C374.681,627.181 374.032,628.694 374.032,630.424L374.032,653.013C374.032,663.533 371.474,671.315 366.358,676.359C361.314,681.475 353.568,684.033 343.12,684.033L320.423,684.033C318.693,684.033 317.216,684.646 315.991,685.871L299.887,701.867C292.537,709.289 285.259,713 278.054,713C270.848,713 263.534,709.289 256.112,701.867L240.008,685.871C238.855,684.646 237.378,684.033 235.576,684.033L212.879,684.033ZM266.164,642.097C268.542,642.097 270.704,641.556 272.649,640.475C274.667,639.323 276.396,637.701 277.837,635.612L328.097,558.872C328.961,557.503 329.646,556.098 330.15,554.657C330.727,553.215 331.015,551.81 331.015,550.441C331.015,547.127 329.754,544.389 327.232,542.227C324.782,540.065 321.936,538.984 318.693,538.984C314.442,538.984 310.875,541.29 307.993,545.902L265.948,612.806L247.033,589.676C245.592,587.874 244.079,586.577 242.494,585.785C240.981,584.992 239.215,584.596 237.198,584.596C233.955,584.596 231.145,585.785 228.767,588.163C226.389,590.468 225.2,593.279 225.2,596.593C225.2,598.178 225.489,599.692 226.065,601.133C226.641,602.574 227.542,604.051 228.767,605.564L254.059,635.828C255.788,637.917 257.626,639.503 259.571,640.584C261.517,641.592 263.714,642.097 266.164,642.097Z" style="fill:url(#_Radial1);fill-rule:nonzero;"/>
            </g>
        </g>
    </g>
    <defs>
        <radialGradient id="_Radial1" cx="0" cy="0" r="1" gradientUnits="userSpaceOnUse" gradientTransform="matrix(-231.001,-328,319.328,-224.894,360.5,730)"><stop offset="0" style="stop-color:rgb(22,67,35);stop-opacity:1"/><stop offset="1" style="stop-color:rgb(37,111,58);stop-opacity:1"/></radialGradient>
    </defs>
</svg>
