<?xml version="1.0" encoding="UTF-8" standalone="no"?>
<!DOCTYPE svg PUBLIC "-//W3C//DTD SVG 1.1//EN" "http://www.w3.org/Graphics/SVG/1.1/DTD/svg11.dtd">
<svg width="100%" height="100%" viewBox="0 0 1024 1024" version="1.1" xmlns="http://www.w3.org/2000/svg" xmlns:xlink="http://www.w3.org/1999/xlink" xml:space="preserve" xmlns:serif="http://www.serif.com/" style="fill-rule:evenodd;clip-rule:evenodd;stroke-linejoin:round;stroke-miterlimit:2;">
    <g transform="matrix(0.768155,0,0,0.768155,294.996,183.053)">
        <g id="Template---Icons---App">
            <g>
                <rect x="220" y="526" width="124" height="124" style="fill:white;"/>
                <path d="M217.879,684.033C207.503,684.033 199.757,681.475 194.641,676.359C189.525,671.243 186.967,663.461 186.967,653.013L186.967,630.424C186.967,628.694 186.354,627.181 185.129,625.884L169.133,609.888C161.711,602.538 158,595.26 158,588.055C158,580.849 161.711,573.535 169.133,566.113L185.129,550.009C186.354,548.784 186.967,547.307 186.967,545.577L186.967,522.88C186.967,512.36 189.489,504.577 194.532,499.534C199.648,494.49 207.431,491.968 217.879,491.968L240.576,491.968C242.378,491.968 243.855,491.355 245.008,490.13L261.112,474.134C268.534,466.712 275.812,463.001 282.945,463.001C290.151,462.929 297.465,466.64 304.887,474.134L320.991,490.13C322.216,491.355 323.693,491.968 325.423,491.968L348.12,491.968C358.568,491.968 366.314,494.526 371.358,499.642C376.474,504.758 379.032,512.504 379.032,522.88L379.032,545.577C379.032,547.307 379.681,548.784 380.978,550.009L396.974,566.113C404.324,573.535 407.999,580.849 407.999,588.055C407.999,595.26 404.324,602.538 396.974,609.888L380.978,625.884C379.681,627.181 379.032,628.694 379.032,630.424L379.032,653.013C379.032,663.533 376.474,671.315 371.358,676.359C366.314,681.475 358.568,684.033 348.12,684.033L325.423,684.033C323.693,684.033 322.216,684.646 320.991,685.871L304.887,701.867C297.537,709.289 290.259,713 283.054,713C275.848,713 268.534,709.289 261.112,701.867L245.008,685.871C243.855,684.646 242.378,684.033 240.576,684.033L217.879,684.033ZM271.164,642.097C273.542,642.097 275.704,641.556 277.649,640.475C279.667,639.323 281.396,637.701 282.837,635.612L333.097,558.872C333.961,557.503 334.646,556.098 335.15,554.657C335.727,553.215 336.015,551.81 336.015,550.441C336.015,547.127 334.754,544.389 332.232,542.227C329.782,540.065 326.936,538.984 323.693,538.984C319.442,538.984 315.875,541.29 312.993,545.902L270.948,612.806L252.033,589.676C250.592,587.874 249.079,586.577 247.494,585.785C245.981,584.992 244.215,584.596 242.198,584.596C238.955,584.596 236.145,585.785 233.767,588.163C231.389,590.468 230.2,593.279 230.2,596.593C230.2,598.178 230.489,599.692 231.065,601.133C231.641,602.574 232.542,604.051 233.767,605.564L259.059,635.828C260.788,637.917 262.626,639.503 264.571,640.584C266.517,641.592 268.714,642.097 271.164,642.097Z" style="fill:url(#_Radial1);fill-rule:nonzero;"/>
            </g>
        </g>
    </g>
    <defs>
        <radialGradient id="_Radial1" cx="0" cy="0" r="1" gradientUnits="userSpaceOnUse" gradientTransform="matrix(-273.499,-250.001,243.393,-266.269,431.5,713)"><stop offset="0" style="stop-color:rgb(109,25,0);stop-opacity:1"/><stop offset="1" style="stop-color:rgb(169,62,0);stop-opacity:1"/></radialGradient>
    </defs>
</svg>
